<?xml version="1.0" encoding="UTF-8" standalone="no"?>
<!-- Created with Inkscape (http://www.inkscape.org/) -->

<svg
   xmlns:dc="http://purl.org/dc/elements/1.1/"
   xmlns:cc="http://creativecommons.org/ns#"
   xmlns:rdf="http://www.w3.org/1999/02/22-rdf-syntax-ns#"
   xmlns:svg="http://www.w3.org/2000/svg"
   xmlns="http://www.w3.org/2000/svg"
   xmlns:xlink="http://www.w3.org/1999/xlink"
   version="1.1"
   width="64"
   height="22"
   id="svg3273">
  <defs
     id="defs3275">
    <linearGradient
       id="linearGradient5218">
      <stop
         id="stop5220"
         style="stop-color:#ffffff;stop-opacity:0.73658538"
         offset="0" />
      <stop
         id="stop5222"
         style="stop-color:#ffffff;stop-opacity:0.09268293"
         offset="1" />
    </linearGradient>
    <linearGradient
       id="linearGradient4182">
      <stop
         id="stop4184"
         style="stop-color:#5a5a5a;stop-opacity:1"
         offset="0" />
      <stop
         id="stop4186"
         style="stop-color:#393939;stop-opacity:1"
         offset="1" />
    </linearGradient>
    <linearGradient
       id="linearGradient4174">
      <stop
         id="stop4176"
         style="stop-color:#606060;stop-opacity:1"
         offset="0" />
      <stop
         id="stop4178"
         style="stop-color:#333333;stop-opacity:1"
         offset="1" />
    </linearGradient>
    <linearGradient
       id="linearGradient3990">
      <stop
         id="stop3992"
         style="stop-color:#8e8e8e;stop-opacity:1"
         offset="0" />
      <stop
         id="stop3994"
         style="stop-color:#ffffff;stop-opacity:0"
         offset="1" />
    </linearGradient>
    <linearGradient
       id="linearGradient4095">
      <stop
         id="stop4097"
         style="stop-color:#131313;stop-opacity:1"
         offset="0" />
      <stop
         id="stop4099"
         style="stop-color:#131313;stop-opacity:0"
         offset="1" />
    </linearGradient>
    <linearGradient
       x1="17.438566"
       y1="16.119637"
       x2="17.239433"
       y2="8.7654696"
       id="linearGradient4011"
       xlink:href="#linearGradient3990"
       gradientUnits="userSpaceOnUse"
       gradientTransform="matrix(0.89109737,0,0,0.83081607,2.3981167,2.0476389)" />
    <linearGradient
       x1="-47.452175"
       y1="1.9164428"
       x2="-47.557411"
       y2="18.329622"
       id="linearGradient4015"
       xlink:href="#linearGradient4174"
       gradientUnits="userSpaceOnUse"
       gradientTransform="matrix(0.92685311,0,0,0.83592243,61.295588,1.903004)" />
    <linearGradient
       x1="-19.532629"
       y1="10.037049"
       x2="-11.504409"
       y2="9.6024895"
       id="linearGradient4019"
       xlink:href="#linearGradient4095"
       gradientUnits="userSpaceOnUse"
       gradientTransform="matrix(0.79620562,0,0,0.83905043,42.680643,2.875036)" />
    <linearGradient
       x1="-11.538785"
       y1="18.111111"
       x2="-11.672953"
       y2="2.9496856"
       id="linearGradient4022"
       xlink:href="#linearGradient4182"
       gradientUnits="userSpaceOnUse"
       gradientTransform="matrix(0.950863,0,0,0.93325139,62.602232,0.69004078)" />
    <linearGradient
       x1="32.037582"
       y1="21.076273"
       x2="32.311661"
       y2="10.558059"
       id="linearGradient4025"
       xlink:href="#linearGradient5218"
       gradientUnits="userSpaceOnUse" />
    <linearGradient
       x1="17.438566"
       y1="16.119637"
       x2="17.239433"
       y2="8.7654696"
       id="linearGradient4175"
       xlink:href="#linearGradient3990"
       gradientUnits="userSpaceOnUse"
       gradientTransform="matrix(0.89109737,0,0,0.83081607,-61.685959,2.0476389)" />
    <linearGradient
       x1="-47.452175"
       y1="1.9164428"
       x2="-47.557411"
       y2="18.329622"
       id="linearGradient4179"
       xlink:href="#linearGradient4174"
       gradientUnits="userSpaceOnUse"
       gradientTransform="matrix(0.92685311,0,0,0.83592243,-2.788488,1.903004)" />
    <linearGradient
       x1="-19.532629"
       y1="10.037049"
       x2="-11.504409"
       y2="9.6024895"
       id="linearGradient4183"
       xlink:href="#linearGradient4095"
       gradientUnits="userSpaceOnUse"
       gradientTransform="matrix(0.79620562,0,0,0.83905043,-21.403433,2.875036)" />
    <linearGradient
       x1="-11.538785"
       y1="18.111111"
       x2="-11.672953"
       y2="2.9496856"
       id="linearGradient4186"
       xlink:href="#linearGradient4182"
       gradientUnits="userSpaceOnUse"
       gradientTransform="matrix(0.950863,0,0,0.93325139,-1.481844,0.69004078)" />
    <linearGradient
       x1="32.037582"
       y1="21.076273"
       x2="32.311661"
       y2="10.558059"
       id="linearGradient4189"
       xlink:href="#linearGradient5218"
       gradientUnits="userSpaceOnUse"
       gradientTransform="translate(-64.084076,0)" />
    <linearGradient
       x1="32.037582"
       y1="21.076273"
       x2="32.311661"
       y2="10.558059"
       id="linearGradient5521"
       xlink:href="#linearGradient5218-6"
       gradientUnits="userSpaceOnUse"
       gradientTransform="translate(-64.084076,0)" />
    <linearGradient
       x1="-11.538785"
       y1="18.111111"
       x2="-11.672953"
       y2="2.9496856"
       id="linearGradient5518"
       xlink:href="#linearGradient4182-6"
       gradientUnits="userSpaceOnUse"
       gradientTransform="matrix(0.950863,0,0,0.93325139,-1.481844,0.69004078)" />
    <linearGradient
       x1="-19.532629"
       y1="10.037049"
       x2="-11.504409"
       y2="9.6024895"
       id="linearGradient5515"
       xlink:href="#linearGradient4095-0"
       gradientUnits="userSpaceOnUse"
       gradientTransform="matrix(0.79620562,0,0,0.83905043,-21.403433,2.875036)" />
    <linearGradient
       x1="-47.452175"
       y1="1.9164428"
       x2="-47.557411"
       y2="18.329622"
       id="linearGradient5511"
       xlink:href="#linearGradient4174-5"
       gradientUnits="userSpaceOnUse"
       gradientTransform="matrix(0.92685311,0,0,0.83592243,-2.788488,1.903004)" />
    <linearGradient
       x1="17.438566"
       y1="16.119637"
       x2="17.239433"
       y2="8.7654696"
       id="linearGradient5507"
       xlink:href="#linearGradient3990-1"
       gradientUnits="userSpaceOnUse"
       gradientTransform="matrix(0.89109737,0,0,0.83081607,-61.685959,2.0476389)" />
    <linearGradient
       id="linearGradient4095-0">
      <stop
         id="stop4097-1"
         style="stop-color:#131313;stop-opacity:1"
         offset="0" />
      <stop
         id="stop4099-0"
         style="stop-color:#131313;stop-opacity:0"
         offset="1" />
    </linearGradient>
    <linearGradient
       id="linearGradient3990-1">
      <stop
         id="stop3992-4"
         style="stop-color:#ffffff;stop-opacity:1"
         offset="0" />
      <stop
         id="stop3994-2"
         style="stop-color:#ffffff;stop-opacity:0"
         offset="1" />
    </linearGradient>
    <linearGradient
       id="linearGradient4174-5">
      <stop
         id="stop4176-2"
         style="stop-color:#e2e2e2;stop-opacity:1"
         offset="0" />
      <stop
         id="stop4178-4"
         style="stop-color:#bcbcbc;stop-opacity:1"
         offset="1" />
    </linearGradient>
    <linearGradient
       id="linearGradient4182-6">
      <stop
         id="stop4184-2"
         style="stop-color:#686868;stop-opacity:1"
         offset="0" />
      <stop
         id="stop4186-6"
         style="stop-color:#393939;stop-opacity:1"
         offset="1" />
    </linearGradient>
    <linearGradient
       id="linearGradient5218-6">
      <stop
         id="stop5220-0"
         style="stop-color:#ffffff;stop-opacity:0.84878051"
         offset="0" />
      <stop
         id="stop5222-0"
         style="stop-color:#ffffff;stop-opacity:0.50731707"
         offset="1" />
    </linearGradient>
    <linearGradient
       x1="17.438566"
       y1="16.119637"
       x2="17.239433"
       y2="8.7654696"
       id="linearGradient4287"
       xlink:href="#linearGradient3990-1"
       gradientUnits="userSpaceOnUse"
       gradientTransform="matrix(0.89109737,0,0,0.83081607,0.123521,-40.263144)" />
    <linearGradient
       x1="-47.452175"
       y1="1.9164428"
       x2="-47.557411"
       y2="18.329622"
       id="linearGradient4291"
       xlink:href="#linearGradient4174-5"
       gradientUnits="userSpaceOnUse"
       gradientTransform="matrix(0.92685311,0,0,0.83592243,59.020992,-40.407779)" />
    <linearGradient
       x1="-19.532629"
       y1="10.037049"
       x2="-11.504409"
       y2="9.6024895"
       id="linearGradient4295"
       xlink:href="#linearGradient4095-0"
       gradientUnits="userSpaceOnUse"
       gradientTransform="matrix(0.79620562,0,0,0.83905043,40.406047,-39.435747)" />
    <linearGradient
       x1="-11.538785"
       y1="18.111111"
       x2="-11.672953"
       y2="2.9496856"
       id="linearGradient4298"
       xlink:href="#linearGradient4182-6"
       gradientUnits="userSpaceOnUse"
       gradientTransform="matrix(0.950863,0,0,0.93325139,60.327636,-41.620742)" />
    <linearGradient
       x1="32.037582"
       y1="21.076273"
       x2="32.311661"
       y2="10.558059"
       id="linearGradient4301"
       xlink:href="#linearGradient5218-6"
       gradientUnits="userSpaceOnUse"
       gradientTransform="translate(-2.274596,-42.310783)" />
  </defs>
  <metadata
     id="metadata3278">
    <rdf:RDF>
      <cc:Work
         rdf:about="">
        <dc:format>image/svg+xml</dc:format>
        <dc:type
           rdf:resource="http://purl.org/dc/dcmitype/StillImage" />
        <dc:title></dc:title>
      </cc:Work>
    </rdf:RDF>
  </metadata>
  <g
     id="g4303">
    <rect
       width="63.825302"
       height="21.83025"
       rx="10.492218"
       ry="10.046159"
       x="-63.954689"
       y="0.084875293"
       transform="scale(-1,1)"
       id="rect5038"
       style="opacity:0.15765764;color:#000000;fill:url(#linearGradient4189);fill-opacity:1;stroke:none;stroke-width:0.99817806;marker:none;visibility:visible;display:inline;overflow:visible;enable-background:accumulate" />
    <rect
       width="59.904373"
       height="17.731777"
       rx="9.8476582"
       ry="8.1600637"
       x="-61.861641"
       y="2.0899179"
       transform="scale(-1,1)"
       id="rect17456"
       style="color:#000000;fill:url(#linearGradient4186);fill-opacity:1;stroke:#2c2c2c;stroke-width:0.94201595;stroke-linecap:round;stroke-linejoin:miter;stroke-miterlimit:4;stroke-opacity:1;stroke-dasharray:none;stroke-dashoffset:0;marker:none;visibility:visible;display:inline;overflow:visible;enable-background:accumulate" />
    <rect
       width="24.682373"
       height="16.781008"
       rx="7.3531914"
       ry="7.069149"
       x="-55.871925"
       y="2.6352806"
       transform="scale(-1,1)"
       id="rect4062"
       style="fill:url(#linearGradient4183);fill-opacity:1;stroke:none;display:inline" />
    <rect
       width="58.082878"
       height="15.95944"
       rx="8.5392857"
       ry="7.9797201"
       x="-60.929451"
       y="3.0171902"
       transform="scale(-1,1)"
       id="rect3963"
       style="opacity:0.12396695;color:#000000;fill:none;stroke:#ffffff;stroke-width:0.88000631;stroke-linecap:round;stroke-linejoin:miter;stroke-miterlimit:4;stroke-opacity:1;stroke-dasharray:none;stroke-dashoffset:0;marker:none;visibility:visible;display:inline;overflow:visible;enable-background:accumulate" />
    <rect
       width="27.953453"
       height="16.733444"
       rx="8.3840151"
       ry="8.366724"
       x="-61.366753"
       y="2.5931528"
       transform="scale(-1,1)"
       id="rect4172"
       style="fill:url(#linearGradient4179);fill-opacity:1;stroke:none;display:inline" />
    <path
       d="m 43.66582,12.677203 -0.06259,-2.311698 -0.06259,-2.3116978 -1.795021,1.2152699 -1.795021,1.2152699 1.857614,1.096428 z"
       id="path3825"
       style="fill:#000000;fill-opacity:1;stroke:none" />
    <rect
       width="26.096577"
       height="15.653982"
       rx="7.9122596"
       ry="7.1405406"
       x="-60.425228"
       y="3.1996071"
       transform="scale(-1,1)"
       id="rect4145"
       style="opacity:0.45045046;fill:none;stroke:url(#linearGradient4175);stroke-width:1.10504913;stroke-miterlimit:4;stroke-opacity:1;stroke-dasharray:none;display:inline" />
    <path
       d="m 49.474524,12.677203 -0.06259,-2.311698 -0.06259,-2.3116978 -1.795021,1.2152699 -1.795021,1.2152699 1.857614,1.096428 z"
       id="path3827"
       style="fill:#000000;fill-opacity:1;stroke:none" />
    <path
       d="m 42.978772,12.439833 -0.06259,-1.994744 -0.06259,-1.9947428 -1.795021,1.0486454 -1.795021,1.0486454 1.857614,0.946098 z"
       id="path3819"
       style="fill:#a9a9a9;fill-opacity:1;stroke:none" />
    <path
       d="m 55.033387,12.53966 -0.06259,-2.311698 -0.06259,-2.3116982 -1.795021,1.2152699 -1.795021,1.2152703 1.857614,1.096428 z"
       id="path3829"
       style="fill:#000000;fill-opacity:1;stroke:none" />
    <path
       d="m 48.787474,12.439833 -0.06259,-1.994744 -0.06259,-1.9947428 -1.795021,1.0486454 -1.795021,1.0486454 1.857614,0.946098 z"
       id="path3821"
       style="fill:#a9a9a9;fill-opacity:1;stroke:none" />
    <path
       d="m 54.346338,12.321148 -0.06259,-1.994744 -0.06259,-1.9947428 -1.795021,1.0486454 -1.795021,1.0486454 1.857614,0.946098 z"
       id="path3823"
       style="fill:#a8a8a8;fill-opacity:1;stroke:none" />
    <g
       transform="translate(3.2464196,0.37655448)"
       id="text4327-4"
       style="font-size:11px;font-style:normal;font-variant:normal;font-weight:bold;font-stretch:normal;line-height:125%;letter-spacing:0px;word-spacing:0px;fill:#ffffff;fill-opacity:1;stroke:none;font-family:Aller;-inkscape-font-specification:Aller Bold">
      <path
         d="m 12.055112,14.753119 c -0.594004,-10e-7 -1.107336,-0.102667 -1.54,-0.308 -0.432669,-0.205333 -0.7883351,-0.487666 -1.0670001,-0.847 -0.2786678,-0.366666 -0.4876676,-0.795665 -0.627,-1.287 -0.1320007,-0.498664 -0.1980006,-1.04133 -0.198,-1.628 -6e-7,-0.586663 0.065999,-1.1293287 0.198,-1.6280005 0.1393324,-0.5059939 0.3483322,-0.9423268 0.627,-1.309 0.278665,-0.3666594 0.6343311,-0.6526591 1.0670001,-0.858 0.432664,-0.2053253 0.945996,-0.3079919 1.54,-0.308 0.593995,8.1e-6 1.107328,0.1026747 1.54,0.308 0.432661,0.2053409 0.788327,0.4913406 1.067,0.858 0.27866,0.3666732 0.483993,0.8030061 0.616,1.309 0.139326,0.4986718 0.208992,1.0413375 0.209,1.6280005 -8e-6,0.58667 -0.06967,1.129336 -0.209,1.628 -0.132007,0.491335 -0.33734,0.920334 -0.616,1.287 -0.278673,0.359334 -0.634339,0.641667 -1.067,0.847 -0.432672,0.205333 -0.946005,0.307999 -1.54,0.308 m 0,-1.342 c 1.136661,1e-6 1.704994,-0.909332 1.705,-2.728 -6e-6,-0.9093289 -0.139339,-1.5913283 -0.418,-2.0460005 -0.271338,-0.4546602 -0.696671,-0.6819933 -1.276,-0.682 -1.151336,6.7e-6 -1.727002,0.9093391 -1.727,2.7280005 -2e-6,1.818668 0.571997,2.728001 1.716,2.728"
         id="path5129"
         style="fill:#ffffff;fill-opacity:1" />
      <path
         d="m 16.824299,6.7121185 c 0.227333,-0.043992 0.443666,-0.065992 0.649,-0.066 0.219999,8e-6 0.447332,0.022008 0.682,0.066 l 3.058,5.0380005 0,-5.0380005 c 0.263995,-0.043992 0.516995,-0.065992 0.759,-0.066 0.227328,8e-6 0.447327,0.022008 0.66,0.066 l 0,7.9090005 c -0.234673,0.044 -0.447339,0.066 -0.638,0.066 -0.205339,-10e-7 -0.429005,-0.022 -0.671,-0.066 l -3.08,-5.0270005 0,5.0270005 c -0.234668,0.044 -0.473001,0.066 -0.715,0.066 -0.242001,-10e-7 -0.476667,-0.022 -0.704,-0.066 l 0,-7.9090005"
         id="path5131"
         style="fill:#ffffff;fill-opacity:1" />
    </g>
  </g>
</svg>
